<svg xmlns="http://www.w3.org/2000/svg" width="194" height="160" viewBox="0 0 194 160">
  <title>A20 - H20 - SR - CL30 - CM - IS25 mounting angle</title>
  <rect width="194" height="160" fill="#fff"/>
  <defs><marker id="a" markerWidth="5" markerHeight="5" refX="2.5" refY="2.5" orient="auto-start-reverse"><path d="M5 0 0 2.5 5 5Z" fill="#8B5CF6"/></marker></defs>
  <g id="mounting-angle" fill="none" stroke="#111" stroke-width="1.8" stroke-linejoin="round">
    <path id="main-piece" d="M55 110V33l17-17h7v70h53l17 17v7Z"/>
    <circle cx="64" cy="48" r="3.8"/>
    <circle cx="64" cy="81" r="3.8"/>
    <circle cx="68" cy="99" r="5.8"/>
    <circle cx="85" cy="99" r="3.8"/>
    <circle cx="114" cy="99" r="3.8"/>
  </g>
  <g id="dimensions" fill="none" stroke="#8B5CF6" stroke-width="1">
    <path d="M55 20V9m24 10V9M55 13h24M61 99H43M55 114v12m94-19v19M55 122h94M51 16H38m17 94H38M42 16v94" marker-start="url(#a)" marker-end="url(#a)"/>
  </g>
  <g fill="#8B5CF6" font-family="Arial,sans-serif" font-size="8"><text x="67" y="8" text-anchor="middle">18</text><text x="40" y="102" text-anchor="end">Ø 9</text><text x="102" y="134" text-anchor="middle">73</text><text x="35" y="63" text-anchor="middle" transform="rotate(-90 35 63)">73</text></g>
  <text id="designation" x="97" y="153" fill="#111" stroke="none" font-family="Arial, sans-serif" font-size="9.0" font-style="normal" font-weight="400" text-anchor="middle" text-decoration="none">A20 - H20 - SR - CL30 - CM - IS25</text>
</svg>
