<svg xmlns="http://www.w3.org/2000/svg" width="194" height="160" viewBox="0 0 194 160">
  <title>A20 profile section</title><rect width="194" height="160" fill="#fff"/>
  <defs><marker id="a" markerWidth="5" markerHeight="5" refX="2.5" refY="2.5" orient="auto-start-reverse"><path d="M5 0 0 2.5 5 5Z" fill="#8B5CF6"/></marker></defs>
  <g id="profile" stroke-linejoin="round">
    <path d="M59 102V30h13v11q0 6-6 7l-4 1v36q0 7 7 7h14v7h47l4-3 3 3-5 5H84l-3 3H66Z" fill="#999" stroke="#111" stroke-width="1.8"/>
    <path d="M62 99h19l3-3m-22-8v6q0 5 6 5h13" fill="none" stroke="#555" stroke-width="1.3"/>
    <path d="M64 94h17m-16 3h16" fill="none" stroke="#555" stroke-width=".8"/>
    <path d="m64 91 8 8h10l-6-7Z" fill="#999" stroke="#555" stroke-width=".8"/>
  </g>
  <g id="dimensions" fill="none" stroke="#8B5CF6" stroke-width=".9"><path d="M55 30H43m12 72H43m4-72v72M59 26V15m13 11V15M59 19h13M59 108v13m78-13v13M59 117h78" marker-start="url(#a)" marker-end="url(#a)"/></g>
  <g fill="#8B5CF6" font-family="Arial,sans-serif" font-size="7"><text x="41" y="68" transform="rotate(-90 41 68)">20</text><text x="65.5" y="14" text-anchor="middle">7,5</text><text x="98" y="128">27</text></g>
  <text id="designation" x="97" y="153" fill="#111" stroke="none" font-family="Arial, sans-serif" font-size="9.0" font-style="normal" font-weight="400" text-anchor="middle" text-decoration="none">A20</text>
</svg>
