<?xml version="1.0" encoding="UTF-8"?>
<svg xmlns="http://www.w3.org/2000/svg" width="244" height="181" viewBox="0 0 330 225"><title>BTR</title><desc>Clean editable AIRKAN technical redraw from the authoritative PNG.</desc><defs><marker id="a" markerWidth="7" markerHeight="7" refX="3.5" refY="3.5" orient="auto-start-reverse"><path d="M0 3.5L7 0L7 7Z" fill="#8B5CF6" stroke="none"/></marker></defs><rect id="background" width="330" height="225" fill="#fff" stroke="none"/><text x="12" y="20" fill="#111" stroke="none" font-family="Arial,Helvetica,sans-serif" font-size="12"><tspan x="12">Bocht 135&#176; + tralie</tspan><tspan x="12" dy="15">Coude 135&#176; + treillis</tspan><tspan x="12" dy="15">Elbow 135&#176; + trellis</tspan></text><g id="object" fill="none" stroke="#111" stroke-width="2" stroke-linejoin="round"><path d="M85 155H155V138A34 34 0 0 1 189 104H205L250 59A88 88 0 0 0 100 120V155M85 162H155M205 111L257 59M100 120H155"/></g><g id="dimensions" fill="#8B5CF6" stroke="#8B5CF6" stroke-width="1" font-family="Arial,Helvetica,sans-serif" font-size="12"><text x="10" y="92" stroke="none">TDC20 - E20</text><text x="10" y="110" stroke="none">TDC30 - E30</text><text x="38" y="132" stroke="none">A20 / A30 / A40</text><path d="M85 180V207M155 168V207M89 198H151" marker-start="url(#a)" marker-end="url(#a)"/><text x="120" y="193" stroke="none">A&#215;B</text><path d="M205 104L235 75" marker-start="url(#a)" marker-end="url(#a)"/><text x="235" y="104" stroke="none">45&#176;</text></g><text id="designation" x="165" y="217" fill="#111" stroke="none" font-family="Arial,Helvetica,sans-serif" font-size="12" font-weight="700" text-anchor="middle">BTR</text></svg>


