<?xml version="1.0" encoding="UTF-8"?>
<svg xmlns="http://www.w3.org/2000/svg" width="194" height="184" viewBox="0 0 194 184" role="img" aria-labelledby="title desc">
  <title id="title">DD60 roof penetration</title><desc id="desc">Sixty degree roof penetration with storm collar and repeated hidden circular sections.</desc>
  <defs><marker id="a" markerWidth="4" markerHeight="4" refX="2" refY="2" orient="auto-start-reverse"><path d="M0 0 4 2 0 4Z" fill="#8B5CF6"/></marker></defs><rect width="194" height="184" fill="#fff"/>
  <g transform="translate(29.1) scale(.7 1)" fill="none" stroke="#888" stroke-width=".9" stroke-dasharray="3 2"><path d="M76 40V25C76 19 118 19 118 25V40M76 25c0 7 42 7 42 0"/><path d="M76 50v111c0 7 42 7 42 0V50M76 71c0 7 42 7 42 0M76 94c0 7 42 7 42 0M76 117c0 7 42 7 42 0M76 140c0 7 42 7 42 0M76 161c0 7 42 7 42 0"/></g>
  <g transform="translate(29.1) scale(.7 1)" fill="#fff" stroke="#222" stroke-width="1.6"><path d="M67 50v111M127 50v111"/><rect x="56" y="40" width="82" height="10"/><circle cx="64" cy="45" r="2"/><circle cx="130" cy="45" r="2"/><path d="M48 65 67 50h60l19 15Z"/></g>
  <path d="M58 163 125 47" fill="none" stroke="#222" stroke-width="1.2"/><path d="M97 14v162M97 160h65" fill="none" stroke="#aaa" stroke-width=".65" stroke-dasharray="6 2 1 2"/>
  <g fill="none" stroke="#8B5CF6" stroke-width=".6"><path d="M68 40V7M126 40V7M68 10h58" marker-start="url(#a)" marker-end="url(#a)"/><path d="M68 40H48M63 65H48M51 40v25" marker-start="url(#a)" marker-end="url(#a)"/><path d="M68 40H58M76 50H58M61 40v10" marker-start="url(#a)" marker-end="url(#a)"/><path d="M131 65h26M146 65v25" marker-start="url(#a)" marker-end="url(#a)"/><path d="M160 160a96 96 0 0 0-29-95" marker-start="url(#a)" marker-end="url(#a)"/><path d="M82 169h30" marker-start="url(#a)" marker-end="url(#a)"/></g>
  <g fill="#8B5CF6" stroke="none" font-family="Arial, sans-serif" font-size="6"><text x="97" y="6" text-anchor="middle">Ø + 150</text><text x="45" y="53" transform="rotate(-90 45 53)" text-anchor="middle">75</text><text x="56" y="45" transform="rotate(-90 56 45)" text-anchor="middle">40</text><text x="150" y="80">100</text><text x="163" y="139">60°</text><text x="97" y="166" text-anchor="middle">Ø</text></g>
  <text x="97" y="181" fill="#222" stroke="none" font-family="Arial, sans-serif" font-size="7" font-weight="700" text-anchor="middle">DD60 - Ø</text>
</svg>
