<svg xmlns="http://www.w3.org/2000/svg" width="194" height="160" viewBox="0 0 194 160">
  <title>HL20 - HL30 - MOUSSE - MH corner piece</title><rect width="194" height="160" fill="#fff"/>
  <g id="corner-piece" fill="#fff" stroke="#111" stroke-width="2" stroke-linejoin="round">
    <path d="M51 20h79l13 15v35H88v49H53l-14-14V31Z"/>
    <path d="m44 31 11-10 17 3 7 11-8 15-17 2-12-9Z"/>
    <path d="m53 29 10-2 9 8-5 10-11 1-8-8Z"/>
    <rect x="83" y="31" width="42" height="10" rx="5"/><rect x="55" y="60" width="10" height="40" rx="5"/>
    <path d="m129 26 9 3 4 11-6 3-5-8-6-2ZM47 98l7 8-3 7-8-8Z"/><path d="m125 56 7 7v5h-8l-5-7Z"/>
  </g>
  <text id="designation" x="97" y="153" fill="#111" stroke="none" font-family="Arial, sans-serif" font-size="9.0" font-style="normal" font-weight="400" text-anchor="middle" text-decoration="none">HL20 - HL30 - MOUSSE - MH</text>
</svg>
