<?xml version="1.0" encoding="UTF-8"?>
<svg xmlns="http://www.w3.org/2000/svg" width="671" height="215" viewBox="0 0 671 215" role="img" aria-labelledby="title desc">
  <title id="title">Pre-montage rectangular take-off</title>
  <desc id="desc">Two-view pre-mounting technical drawing matching the source.</desc>

  <defs>
    <marker id="arrow" markerWidth="7" markerHeight="7" refX="3.5" refY="3.5" orient="auto-start-reverse" markerUnits="userSpaceOnUse">
      <path d="M1 7L6 0" fill="none" stroke="#8B5CF6" stroke-width="1"/>
    </marker>
    <marker id="leader" markerWidth="8" markerHeight="8" refX="7" refY="4" orient="auto" markerUnits="userSpaceOnUse">
      <path d="M0 1L8 4L0 7Z" fill="#111"/>
    </marker>
  </defs>
  <style>
    .obj{fill:none;stroke:#111;stroke-width:2;stroke-linecap:square;stroke-linejoin:miter}
    .thin{fill:none;stroke:#555;stroke-width:1}
    .dim{fill:none;stroke:#666;stroke-width:1;marker-start:url(#arrow);marker-end:url(#arrow)}
    .ext{fill:none;stroke:#777;stroke-width:1}
    .hidden{fill:none;stroke:#555;stroke-width:1.35;stroke-dasharray:8 6}
    .center{fill:none;stroke:#999;stroke-width:.8;stroke-dasharray:8 3 2 3}
    .txt{fill:#333;font-family:Arial,Helvetica,sans-serif;font-size:11px}
    .small{fill:#333;font-family:Arial,Helvetica,sans-serif;font-size:9px}
  </style>
  <rect width="671" height="191" fill="#fff"/>

  <defs>
    <marker id="flow" markerWidth="11" markerHeight="9" refX="10" refY="4.5" orient="auto" markerUnits="userSpaceOnUse">
      <path d="M0 0L11 4.5L0 9Z" fill="#111"/>
    </marker></defs>
  <path d="M0 94H42" fill="none" stroke="#111" stroke-width="3.5" marker-end="url(#flow)"/>
  <g id="side-view"><path class="obj" d="M79 72H313V116H79Z" fill="none" stroke="#111" stroke-width="2" stroke-linecap="square" stroke-linejoin="miter"/><path class="thin" d="M88 68V120M304 68V120" fill="none" stroke="#555" stroke-width="1"/><path class="obj" d="M216 72V61H276V72" fill="none" stroke="#111" stroke-width="2" stroke-linecap="square" stroke-linejoin="miter"/>
    
    <path class="ext" d="M79 19V43M218 19V43M277 19V43M79 124V151M313 124V151" fill="none" stroke="#8B5CF6" stroke-width="1"/>
    <path class="dim" d="M83 31H214M222 31H273M83 141H309" fill="none" stroke="#8B5CF6" stroke-width="1" marker-start="url(#arrow)" marker-end="url(#arrow)"/>
    <text class="txt" x="149" y="26" text-anchor="middle" fill="#8B5CF6" font-family="Arial,Helvetica,sans-serif" font-size="11px">G</text><text class="txt" x="247" y="26" text-anchor="middle" fill="#8B5CF6" font-family="Arial,Helvetica,sans-serif" font-size="11px">AxB</text><text class="txt" x="196" y="136" text-anchor="middle" fill="#8B5CF6" font-family="Arial,Helvetica,sans-serif" font-size="11px">L</text>
    <text class="txt" x="53" y="101" fill="#333" font-family="Arial,Helvetica,sans-serif" font-size="11px">K<tspan baseline-shift="sub" font-size="8">1</tspan></text>
    <text class="txt" x="319" y="101" fill="#333" font-family="Arial,Helvetica,sans-serif" font-size="11px">K<tspan baseline-shift="sub" font-size="8">2</tspan></text>
  </g>
  <g id="end-view">
    <path class="obj" d="M433 79H518V129H433Z M454 79V66H493V79" fill="none" stroke="#111" stroke-width="2" stroke-linecap="square" stroke-linejoin="miter"/>
    <path class="ext" d="M421 79H397M421 129H397M433 137V163M518 137V163M452 24V54M493 24V54M512 24V54" fill="none" stroke="#8B5CF6" stroke-width="1"/>
    <path class="dim" d="M409 83V125M437 151H514M456 36H489M497 36H508" fill="none" stroke="#8B5CF6" stroke-width="1" marker-start="url(#arrow)" marker-end="url(#arrow)"/>
    <text class="txt" x="403" y="105" text-anchor="middle" transform="rotate(-90 403 105)" fill="#8B5CF6" font-family="Arial,Helvetica,sans-serif" font-size="11px">B</text><text class="txt" x="475" y="171" text-anchor="middle" fill="#8B5CF6" font-family="Arial,Helvetica,sans-serif" font-size="11px">A</text>
    <text class="txt" x="474" y="31" text-anchor="middle" fill="#8B5CF6" font-family="Arial,Helvetica,sans-serif" font-size="11px">BxA</text><text class="txt" x="503" y="31" text-anchor="middle" fill="#8B5CF6" font-family="Arial,Helvetica,sans-serif" font-size="11px">E</text>
    <text class="txt" x="474" y="73" text-anchor="middle" fill="#333" font-family="Arial,Helvetica,sans-serif" font-size="11px">1</text><text class="txt" x="525" y="108" fill="#333" font-family="Arial,Helvetica,sans-serif" font-size="11px">2</text><text class="txt" x="475" y="142" text-anchor="middle" fill="#333" font-family="Arial,Helvetica,sans-serif" font-size="11px">3</text><text class="txt" x="420" y="108" fill="#333" font-family="Arial,Helvetica,sans-serif" font-size="11px">4</text>
    <path d="M493 67H574V112" fill="none" stroke="#111" stroke-width="1.2" marker-end="url(#leader)"/>
    <text class="txt" x="579" y="48" fill="#333" font-family="Arial,Helvetica,sans-serif" font-size="11px">- Rechth. aftakking</text><text class="txt" x="579" y="66" fill="#333" font-family="Arial,Helvetica,sans-serif" font-size="11px">- Piquage rectangul.</text><text class="txt" x="579" y="84" fill="#333" font-family="Arial,Helvetica,sans-serif" font-size="11px">- Right take-offs</text><path class="ext" d="M397 57H421" fill="none" stroke="#8B5CF6" stroke-width="1"/><path class="dim" d="M409 61V75" fill="none" stroke="#8B5CF6" stroke-width="1" marker-start="url(#arrow)" marker-end="url(#arrow)"/><text class="txt" x="403" y="69" text-anchor="middle" transform="rotate(-90 403 69)" fill="#8B5CF6" font-family="Arial,Helvetica,sans-serif" font-size="11px">L<tspan baseline-shift="sub" font-size="8">1</tspan></text></g>
  <text id="designation" x="335.5" y="207" fill="#111" font-family="Arial,Helvetica,sans-serif" font-size="13px" font-weight="700" text-anchor="middle">Pre-montage_2</text>
</svg>
