<?xml version='1.0' encoding='utf-8'?>
<svg xmlns="http://www.w3.org/2000/svg" width="671" height="425" viewBox="0 0 671 425">
  <title>Special rectangular bend</title>
  <defs>
    <marker id="d" markerWidth="5" markerHeight="5" refX="2.5" refY="2.5" orient="auto-start-reverse">
      <path d="M5 0 0 2.5 5 5" fill="none" stroke="#8B5CF6" stroke-width="1" />
    </marker>
    <marker id="l" markerWidth="7" markerHeight="7" refX="6" refY="3.5" orient="auto">
      <path d="M0 0 7 3.5 0 7Z" fill="#111" stroke="none" />
    </marker>
  </defs>
  <rect width="671" height="425" fill="#fff" stroke="none" />
  <g fill="none" stroke="#111" stroke-width="2.1" stroke-linejoin="round">
    <path d="M257 97H291C355 97 397 130 419 184L326 240L257 210Z" fill="none" stroke="#111" stroke-width="2.1" stroke-linejoin="round" />
    <path d="M266 97V210M257 89V216M326 240L419 184M319 232L412 176" fill="none" stroke="#111" stroke-width="2.1" stroke-linejoin="round" />
    <path d="M101 90H185L248 131" stroke-width="1.2" marker-end="url(#l)" fill="none" stroke="#111" stroke-linejoin="round" />
    <path d="M570 183H439" stroke-width="1.2" marker-end="url(#l)" fill="none" stroke="#111" stroke-linejoin="round" />
  </g>
  <g fill="none" stroke="#777" stroke-width="1" stroke-dasharray="5 4">
    <path d="M286 212V176L330 150" fill="none" stroke="#777" stroke-width="1" stroke-dasharray="5 4" />
    <path d="M282 220L322 247" fill="none" stroke="#777" stroke-width="1" stroke-dasharray="5 4" />
    <path d="M285 245L310 210" fill="none" stroke="#777" stroke-width="1" stroke-dasharray="5 4" />
  </g>
  <g fill="none" stroke="#8B5CF6" stroke-width=".9">
    <path d="M257 60V85M291 60V93M260 64H288" marker-start="url(#d)" marker-end="url(#d)" fill="none" stroke="#8B5CF6" stroke-width=".9" />
    <path d="M222 97H253M222 210H253M226 100V207" marker-start="url(#d)" marker-end="url(#d)" fill="none" stroke="#8B5CF6" stroke-width=".9" />
    <path d="M337 278L438 218M340 274L435 218" marker-start="url(#d)" marker-end="url(#d)" fill="none" stroke="#8B5CF6" stroke-width=".9" />
    <path d="M426 146L458 198M430 149L454 194" marker-start="url(#d)" marker-end="url(#d)" fill="none" stroke="#8B5CF6" stroke-width=".9" />
    <path d="M267 218A29 29 0 0 0 296 220" marker-start="url(#d)" marker-end="url(#d)" fill="none" stroke="#8B5CF6" stroke-width=".9" />
  </g>
  <g font-family="Arial,sans-serif">
    <g fill="#111" font-size="10">
      <text x="18" y="90" font-family="Arial,sans-serif" fill="#111" font-size="10" stroke="none">TDC20 - E20</text>
      <text x="18" y="116" font-family="Arial,sans-serif" fill="#111" font-size="10" stroke="none">TDC30 - E30</text>
      <text x="69" y="142" font-family="Arial,sans-serif" fill="#111" font-size="10" stroke="none">A20</text>
      <text x="69" y="168" font-family="Arial,sans-serif" fill="#111" font-size="10" stroke="none">A30</text>
      <text x="69" y="194" font-family="Arial,sans-serif" fill="#111" font-size="10" stroke="none">A40</text>
      <text x="579" y="183" font-family="Arial,sans-serif" fill="#111" font-size="10" stroke="none">E20 - TDC20</text>
      <text x="579" y="209" font-family="Arial,sans-serif" fill="#111" font-size="10" stroke="none">E30 - TDC30</text>
      <text x="579" y="235" font-family="Arial,sans-serif" fill="#111" font-size="10" stroke="none">A20</text>
      <text x="579" y="261" font-family="Arial,sans-serif" fill="#111" font-size="10" stroke="none">A30</text>
      <text x="579" y="287" font-family="Arial,sans-serif" fill="#111" font-size="10" stroke="none">A40</text>
      <text x="279" y="155" font-size="14" font-family="Arial,sans-serif" fill="#111" stroke="none">k2</text>
      <text x="362" y="219" font-size="14" font-family="Arial,sans-serif" fill="#111" stroke="none">k1</text>
      <text x="275" y="88" font-size="8" font-family="Arial,sans-serif" fill="#8B5CF6" stroke="none">50</text>
      <text x="241" y="257" font-family="Arial,sans-serif" fill="#8B5CF6" font-size="10" stroke="none">R = 150</text>
      <text x="403" y="202" transform="rotate(-31 403 202)" font-family="Arial,sans-serif" fill="#8B5CF6" font-size="10" stroke="none">Ls</text>
    </g>
    <g fill="#8B5CF6" font-size="10" text-anchor="middle">
      <text x="274" y="56" font-family="Arial,sans-serif" fill="#8B5CF6" font-size="10" text-anchor="middle" stroke="none">F</text>
      <text x="216" y="154" transform="rotate(-90 216 154)" font-family="Arial,sans-serif" fill="#8B5CF6" font-size="10" text-anchor="middle" stroke="none">C×B</text>
      <text x="387" y="274" transform="rotate(-31 387 274)" font-family="Arial,sans-serif" fill="#8B5CF6" font-size="10" text-anchor="middle" stroke="none">A×B</text>
      <text x="451" y="169" transform="rotate(-31 451 169)" font-family="Arial,sans-serif" fill="#8B5CF6" font-size="10" text-anchor="middle" stroke="none">E</text>
      <text x="284" y="240" font-family="Arial,sans-serif" fill="#8B5CF6" font-size="10" text-anchor="middle" stroke="none">α</text>
    </g>
  </g>
  <text x="335.5" y="418" fill="#111" stroke="none" font-family="Arial,sans-serif" font-size="11" font-weight="600" text-anchor="middle">Speciale bochten</text>
</svg>