<?xml version='1.0' encoding='utf-8'?>
<svg xmlns="http://www.w3.org/2000/svg" width="671" height="425" viewBox="0 0 671 425">
  <title>High-pressure rectangular duct reinforcement assembly and details</title>
  <defs>
    <marker id="d" markerWidth="5" markerHeight="5" refX="2.5" refY="2.5" orient="auto-start-reverse">
      <path d="M5 0 0 2.5 5 5" fill="none" stroke="#8B5CF6" stroke-width="1" />
    </marker>
    <marker id="l" markerWidth="6" markerHeight="6" refX="5.5" refY="3" orient="auto">
      <path d="M0 0 6 3 0 6Z" fill="#111" stroke="none" />
    </marker>
  </defs>
  <rect width="671" height="425" fill="#fff" stroke="none" />
  <g font-family="Arial,sans-serif" fill="#111">
    <g font-size="8">
      <text x="63" y="19" fill="#111" font-family="Arial,sans-serif" font-size="8" stroke="none">Kanaalwandversterking</text>
      <text x="63" y="29" fill="#111" font-family="Arial,sans-serif" font-size="8" stroke="none">Renforcements des parois</text>
      <text x="63" y="39" fill="#111" font-family="Arial,sans-serif" font-size="8" stroke="none">Ductside-reinforcing</text>
    </g>
    <g font-size="7.5">
      <text x="391" y="19" fill="#111" font-family="Arial,sans-serif" font-size="7.5" stroke="none">Kader 2</text>
      <text x="391" y="29" fill="#111" font-family="Arial,sans-serif" font-size="7.5" stroke="none">Cadre 2</text>
      <text x="391" y="39" fill="#111" font-family="Arial,sans-serif" font-size="7.5" stroke="none">Profile 2</text>
      <text x="470" y="48" fill="#111" font-family="Arial,sans-serif" font-size="7.5" stroke="none">Versteviging (1)</text>
      <text x="470" y="58" fill="#111" font-family="Arial,sans-serif" font-size="7.5" stroke="none">Renfort (1)</text>
      <text x="470" y="68" fill="#111" font-family="Arial,sans-serif" font-size="7.5" stroke="none">Fortification (1)</text>
    </g>
  </g>
  <g id="spacing-detail">
    <path d="M63 65L111 52L159 65L207 52" fill="none" stroke="#111" stroke-width="1" />
    <path d="M63 65H207" fill="none" stroke="#8B5CF6" stroke-width=".8" />
    <g fill="none" stroke="#777" stroke-width=".55">
      <path d="M63 72V62M111 72V55M159 72V62M207 72V55" fill="none" stroke="#8B5CF6" stroke-width=".55" />
      <path d="M63 70H207" fill="none" stroke="#8B5CF6" stroke-width=".55" />
    </g>
    <g font-family="Arial,sans-serif" font-size="5.6" fill="#111" text-anchor="middle">
      <text x="135" y="52" fill="#8B5CF6" font-family="Arial,sans-serif" font-size="5.6" text-anchor="middle" stroke="none">6 mm</text>
      <text x="87" y="78" fill="#8B5CF6" font-family="Arial,sans-serif" font-size="5.6" text-anchor="middle" stroke="none">160</text>
      <text x="135" y="78" fill="#8B5CF6" font-family="Arial,sans-serif" font-size="5.6" text-anchor="middle" stroke="none">160</text>
      <text x="183" y="78" fill="#8B5CF6" font-family="Arial,sans-serif" font-size="5.6" text-anchor="middle" stroke="none">160</text>
    </g>
  </g>
  <g id="main-assembly" fill="none" stroke="#111" stroke-linejoin="round">
    <path d="M165 98L270 51H400L292 98Z" stroke-width="1.55" fill="none" stroke="#111" stroke-linejoin="round" />
    <path d="M292 98L400 51V135L292 178Z" stroke-width="1.55" fill="none" stroke="#111" stroke-linejoin="round" />
    <path d="M165 98H292V178H165Z" stroke-width="2.2" fill="none" stroke="#111" stroke-linejoin="round" />
    <path d="M174 107H282V164H174Z" stroke-width="1.45" fill="none" stroke="#111" stroke-linejoin="round" />
    <path d="M174 111H282M174 160H282" stroke-width="2.4" fill="none" stroke="#111" stroke-linejoin="round" />
    <path d="M191 86H318M218 74H346M244 62H373" stroke-width="1.05" fill="none" stroke="#111" stroke-linejoin="round" />
    <path d="M318 86V168M346 74V157M373 62V146M400 51V135" stroke-width="1.05" fill="none" stroke="#111" stroke-linejoin="round" />
    <path d="M292 178L400 135" stroke-width="1.5" fill="none" stroke="#111" stroke-linejoin="round" />
    <path d="M227 111V164M227 164L279 114M227 164L176 113" stroke-width="1" fill="none" stroke="#111" stroke-linejoin="round" />
    <path d="M239 92L287 70M244 96L292 74" stroke="#777" stroke-width=".75" stroke-dasharray="4 3" fill="none" stroke-linejoin="round" />
    <path d="M199 143L261 116M207 151L270 123" stroke="#777" stroke-width=".75" stroke-dasharray="4 3" fill="none" stroke-linejoin="round" />
    <g fill="#fff" stroke-width="1.15">
      <circle cx="165" cy="98" r="4" fill="#fff" stroke="#111" stroke-linejoin="round" stroke-width="1.15" />
      <circle cx="292" cy="98" r="4" fill="#fff" stroke="#111" stroke-linejoin="round" stroke-width="1.15" />
      <circle cx="292" cy="178" r="4" fill="#fff" stroke="#111" stroke-linejoin="round" stroke-width="1.15" />
      <circle cx="165" cy="178" r="4" fill="#fff" stroke="#111" stroke-linejoin="round" stroke-width="1.15" />
      <circle cx="270" cy="51" r="4" fill="#fff" stroke="#111" stroke-linejoin="round" stroke-width="1.15" />
      <circle cx="400" cy="51" r="4" fill="#fff" stroke="#111" stroke-linejoin="round" stroke-width="1.15" />
      <circle cx="400" cy="135" r="4" fill="#fff" stroke="#111" stroke-linejoin="round" stroke-width="1.15" />
    </g>
  </g>
  <g id="main-dimensions" fill="none" stroke="#777" stroke-width=".65">
    <path d="M151 98H161M151 178H161M154 101V175" marker-start="url(#d)" marker-end="url(#d)" fill="none" stroke="#8B5CF6" stroke-width=".65" />
    <path d="M165 191V182M292 191V182M168 188H289" marker-start="url(#d)" marker-end="url(#d)" fill="none" stroke="#8B5CF6" stroke-width=".65" />
    <path d="M303 190L407 148M299 185L402 143" marker-start="url(#d)" marker-end="url(#d)" fill="none" stroke="#8B5CF6" stroke-width=".65" />
  </g>
  <g font-family="Arial,sans-serif" font-size="7.5" fill="#111">
    <text x="145" y="141" transform="rotate(-90 145 141)" fill="#8B5CF6" font-family="Arial,sans-serif" font-size="7.5" stroke="none">B</text>
    <text x="226" y="199" fill="#8B5CF6" font-family="Arial,sans-serif" font-size="7.5" stroke="none">A</text>
    <text x="357" y="177" transform="rotate(-23 357 177)" fill="#8B5CF6" font-family="Arial,sans-serif" font-size="7.5" stroke="none">L</text>
    <text x="206" y="148" fill="#111" font-family="Arial,sans-serif" font-size="7.5" stroke="none">(1)</text>
    <text x="278" y="111" fill="#111" font-family="Arial,sans-serif" font-size="7.5" stroke="none">(2)</text>
    <text x="326" y="66" fill="#111" font-family="Arial,sans-serif" font-size="7.5" stroke="none">(3)</text>
    <text x="250" y="158" fill="#111" font-family="Arial,sans-serif" font-size="7.5" stroke="none">(3)</text>
    <text x="168" y="214" fill="#111" font-family="Arial,sans-serif" font-size="7.5" stroke="none">Kader 1</text>
    <text x="168" y="224" fill="#111" font-family="Arial,sans-serif" font-size="7.5" stroke="none">Cadre 1</text>
    <text x="168" y="234" fill="#111" font-family="Arial,sans-serif" font-size="7.5" stroke="none">Profile 1</text>
  </g>
  <g fill="none" stroke="#111" stroke-width=".75">
    <path d="M136 41L188 58L236 84" marker-end="url(#l)" fill="none" stroke="#111" stroke-width=".75" />
    <path d="M389 41L369 57L347 73" marker-end="url(#l)" fill="none" stroke="#111" stroke-width=".75" />
    <path d="M468 68L433 72L402 86" marker-end="url(#l)" fill="none" stroke="#111" stroke-width=".75" />
    <path d="M200 211L215 183" marker-end="url(#l)" fill="none" stroke="#111" stroke-width=".75" />
  </g>
  <g id="expansion-bolt-detail" transform="translate(470 78)">
    <g fill="none" stroke="#111">
      <path d="M11 12V52H20M11 12H25" stroke-width="1.8" fill="none" stroke="#111" />
      <path d="M20 45H58V56H20Z" stroke-width="1.35" fill="none" stroke="#111" />
      <path d="M28 56V157M46 56V157" stroke-width="1.2" fill="none" stroke="#111" />
      <path d="M33 57V151M41 57V151" stroke="#777" stroke-width=".65" stroke-dasharray="3 2" fill="none" />
      <path d="M20 47H58M25 53H53" stroke-width=".75" fill="none" stroke="#111" />
      <path d="M28 82H46V133H28Z" fill="#ddd" stroke-width=".5" stroke="#111" />
      <path d="M28 88L34 82M28 97L43 82M28 106L46 88M28 115L46 97M28 124L46 106M28 133L46 115M37 133L46 124" fill="none" stroke="#777" stroke-width=".45" />
    </g>
    <g font-family="Arial,sans-serif" fill="#111" font-size="5.7">
      <text x="65" y="5" fill="#111" font-family="Arial,sans-serif" font-size="5.7" stroke="none">keilbout / boulon à expansion</text>
      <text x="65" y="13" fill="#111" font-family="Arial,sans-serif" font-size="5.7" stroke="none">expansion bolt</text>
      <text x="65" y="37" fill="#111" font-family="Arial,sans-serif" font-size="5.7" stroke="none">rondel</text>
      <text x="65" y="45" fill="#111" font-family="Arial,sans-serif" font-size="5.7" stroke="none">rondelle</text>
      <text x="65" y="53" fill="#111" font-family="Arial,sans-serif" font-size="5.7" stroke="none">washer</text>
      <text x="65" y="73" fill="#111" font-family="Arial,sans-serif" font-size="5.7" stroke="none">carrosserierondel</text>
      <text x="65" y="81" fill="#111" font-family="Arial,sans-serif" font-size="5.7" stroke="none">rondelle de carrosserie</text>
      <text x="65" y="89" fill="#111" font-family="Arial,sans-serif" font-size="5.7" stroke="none">car washer</text>
      <text x="65" y="111" fill="#111" font-family="Arial,sans-serif" font-size="5.7" stroke="none">plug voor metrische schroefdraad</text>
      <text x="65" y="119" fill="#111" font-family="Arial,sans-serif" font-size="5.7" stroke="none">bouchon pour filet de vis métrique</text>
      <text x="65" y="127" fill="#111" font-family="Arial,sans-serif" font-size="5.7" stroke="none">plug for metrical screw thread</text>
      <text x="65" y="151" fill="#111" font-family="Arial,sans-serif" font-size="5.7" stroke="none">Talbus ¾" / Tube ¾"</text>
    </g>
  </g>
  <g id="reinforcement-profile" transform="translate(69 278)">
    <g font-family="Arial,sans-serif" fill="#111" font-size="7.5">
      <text x="0" y="0" fill="#111" font-family="Arial,sans-serif" font-size="7.5" stroke="none">Versteviging (3)</text>
      <text x="0" y="10" fill="#111" font-family="Arial,sans-serif" font-size="7.5" stroke="none">Renfort (3)</text>
      <text x="0" y="20" fill="#111" font-family="Arial,sans-serif" font-size="7.5" stroke="none">Fortification (3)</text>
    </g>
    <g fill="none" stroke="#111" stroke-linejoin="round">
      <path d="M48 91L141 35L152 40L59 97Z" stroke-width="1.25" fill="none" stroke="#111" stroke-linejoin="round" />
      <path d="M59 97L152 40V49L59 106Z" stroke-width=".9" fill="none" stroke="#111" stroke-linejoin="round" />
    </g>
    <g fill="none" stroke="#777" stroke-width=".6">
      <path d="M43 110V99M94 110V82M45 108H92" marker-start="url(#d)" marker-end="url(#d)" fill="none" stroke="#8B5CF6" stroke-width=".6" />
      <path d="M37 91H46M37 116H57M40 94V113" marker-start="url(#d)" marker-end="url(#d)" fill="none" stroke="#8B5CF6" stroke-width=".6" />
    </g>
    <g font-family="Arial,sans-serif" fill="#111" font-size="6.5">
      <text x="64" y="119" fill="#8B5CF6" font-family="Arial,sans-serif" font-size="6.5" stroke="none">50</text>
      <text x="28" y="106" fill="#8B5CF6" font-family="Arial,sans-serif" font-size="6.5" stroke="none">25</text>
      <text x="147" y="83" fill="#111" font-family="Arial,sans-serif" font-size="6.5" stroke="none">Versterkingsprofiel</text>
      <text x="147" y="92" fill="#111" font-family="Arial,sans-serif" font-size="6.5" stroke="none">Profil de renfort</text>
      <text x="147" y="101" fill="#111" font-family="Arial,sans-serif" font-size="6.5" stroke="none">Reinforcement profile</text>
    </g>
    <path d="M146 81L127 69" fill="none" stroke="#111" stroke-width=".7" marker-end="url(#l)" />
  </g>
  <g id="threaded-rod-detail" transform="translate(335 268)">
    <g font-family="Arial,sans-serif" fill="#111" font-size="7.5">
      <text x="0" y="0" fill="#111" font-family="Arial,sans-serif" font-size="7.5" stroke="none">Versteviging (2)</text>
      <text x="0" y="10" fill="#111" font-family="Arial,sans-serif" font-size="7.5" stroke="none">Renfort (2)</text>
      <text x="0" y="20" fill="#111" font-family="Arial,sans-serif" font-size="7.5" stroke="none">Fortification (2)</text>
    </g>
    <g fill="none" stroke="#111">
      <path d="M13 47H134V58H13Z" stroke-width="1.35" fill="none" stroke="#111" />
      <path d="M61 58V132M79 58V132" stroke-width="1.2" fill="none" stroke="#111" />
      <path d="M66 59V129M74 59V129" stroke="#777" stroke-width=".65" stroke-dasharray="3 2" fill="none" />
      <path d="M50 51H90M55 58H85" stroke-width=".75" fill="none" stroke="#111" />
      <path d="M61 75H79V115H61Z" fill="#ddd" stroke-width=".5" stroke="#111" />
      <path d="M61 81L67 75M61 90L76 75M61 99L79 81M61 108L79 90M63 115L79 99M72 115L79 108" fill="none" stroke="#777" stroke-width=".45" />
    </g>
    <g font-family="Arial,sans-serif" fill="#111" font-size="5.5">
      <text x="141" y="41" fill="#111" font-family="Arial,sans-serif" font-size="5.5" stroke="none">keilbout M8×80 / boulon à expansion</text>
      <text x="141" y="49" fill="#111" font-family="Arial,sans-serif" font-size="5.5" stroke="none">expansion bolt</text>
      <text x="141" y="68" fill="#111" font-family="Arial,sans-serif" font-size="5.5" stroke="none">versterkingsrondel M8</text>
      <text x="141" y="76" fill="#111" font-family="Arial,sans-serif" font-size="5.5" stroke="none">rondelle de renforcement</text>
      <text x="141" y="84" fill="#111" font-family="Arial,sans-serif" font-size="5.5" stroke="none">reinforcement washer</text>
      <text x="141" y="103" fill="#111" font-family="Arial,sans-serif" font-size="5.5" stroke="none">plug voor metrische schroefdraad M16</text>
      <text x="141" y="111" fill="#111" font-family="Arial,sans-serif" font-size="5.5" stroke="none">bouchon pour filet de vis métrique</text>
      <text x="141" y="119" fill="#111" font-family="Arial,sans-serif" font-size="5.5" stroke="none">plug for metrical screw thread</text>
      <text x="141" y="138" fill="#111" font-family="Arial,sans-serif" font-size="5.5" stroke="none">Talbus ¾" / Tube ¾"</text>
    </g>
  </g>
  <text x="335.5" y="418" fill="#111" stroke="none" font-family="Arial,sans-serif" font-size="11" font-weight="600" text-anchor="middle">Uitvoering_ hoge druk</text>
</svg>