<?xml version="1.0" encoding="UTF-8"?>
<svg xmlns="http://www.w3.org/2000/svg" width="671" height="191" viewBox="0 0 490 238"><title>G-VER</title><desc>Clean editable AIRKAN technical redraw from the authoritative PNG.</desc><defs><marker id="a" markerWidth="7" markerHeight="7" refX="3.5" refY="3.5" orient="auto-start-reverse"><path d="M0 3.5L7 0L7 7Z" fill="#8B5CF6" stroke="none"/></marker></defs><rect id="background" width="490" height="238" fill="#fff" stroke="none"/><g id="object" fill="none" stroke="#111" stroke-width="2" stroke-linejoin="round"><rect x="140" y="60" width="95" height="112"/><path d="M140 66H235M140 166H235M235 172H355L380 78H265Z"/></g><g id="dimensions" fill="#8B5CF6" stroke="#8B5CF6" stroke-width="1" font-family="Arial,Helvetica,sans-serif" font-size="12"><text x="12" y="35" stroke="none">TDC20 - E20</text><text x="12" y="55" stroke="none">TDC30 - E30</text><text x="42" y="80" stroke="none">A20</text><text x="42" y="100" stroke="none">A30</text><text x="42" y="120" stroke="none">A40</text><path d="M120 60V172" marker-start="url(#a)" marker-end="url(#a)"/><text x="113" y="116" transform="rotate(-90 113 116)" stroke="none">L</text><path d="M140 188V215M235 178V215M144 206H231" marker-start="url(#a)" marker-end="url(#a)"/><text x="185" y="202" stroke="none">A&#215;B</text><path d="M235 178V215M355 178V215M239 206H351" marker-start="url(#a)" marker-end="url(#a)"/><text x="290" y="202" stroke="none">A&#8321;&#215;B</text><path d="M235 35V55M265 35V72M239 45H261" marker-start="url(#a)" marker-end="url(#a)"/><text x="250" y="40" stroke="none">V</text><path d="M265 35V72M380 35V72M269 45H376" marker-start="url(#a)" marker-end="url(#a)"/><text x="322" y="40" stroke="none">C&#215;B</text><text x="405" y="35" stroke="none">E20 - TDC20</text><text x="405" y="55" stroke="none">E30 - TDC30</text><text x="430" y="82" stroke="none">A20 / A30 / A40</text></g><text id="designation" x="245" y="230" fill="#111" stroke="none" font-family="Arial,Helvetica,sans-serif" font-size="12" font-weight="700" text-anchor="middle">G-VER</text></svg>



